<svg width="95" height="32" fill="none" xmlns="http://www.w3.org/2000/svg"><path d="M6.1 32c-.245 0-.484 0-.728-.01a9.974 9.974 0 0 1-1.506-.135 4.607 4.607 0 0 1-1.335-.459 4.35 4.35 0 0 1-1.125-.85 4.456 4.456 0 0 1-.823-1.169 4.916 4.916 0 0 1-.437-1.386 10.87 10.87 0 0 1-.134-1.569A80.891 80.891 0 0 1 0 25.658V6.332s.007-.578.012-.748c.01-.44.036-1.009.134-1.566.076-.485.223-.954.437-1.392.21-.433.486-.828.818-1.169.331-.345.712-.634 1.13-.855.42-.22.868-.374 1.332-.455A9.777 9.777 0 0 1 5.373.01L6.101 0h82.796l.735.01c.412.01.963.037 1.497.136.468.082.922.237 1.346.458.414.22.793.507 1.122.85.332.344.61.74.824 1.174.21.435.355.9.431 1.38.094.528.123 1.07.14 1.58.003.236.003.49.003.744.006.313.006.613.006.914v17.508c0 .305 0 .6-.006.9 0 .272 0 .521-.004.778a10.971 10.971 0 0 1-.138 1.55 4.919 4.919 0 0 1-.435 1.398c-.212.428-.488.82-.817 1.159-.33.346-.71.635-1.128.855a4.56 4.56 0 0 1-1.344.46c-.516.097-1.05.123-1.506.137-.236.006-.483.009-.722.009H6.1z" fill="#000"/><path d="M19.814 16.244c-.019-2.201 1.803-3.272 1.886-3.322-1.031-1.505-2.63-1.71-3.192-1.727-1.345-.14-2.646.804-3.331.804-.698 0-1.752-.79-2.886-.766-1.462.022-2.83.869-3.58 2.182-1.546 2.678-.393 6.615 1.09 8.78.741 1.06 1.608 2.246 2.742 2.203 1.109-.045 1.524-.707 2.863-.707 1.327 0 1.716.707 2.874.68 1.19-.018 1.94-1.064 2.656-2.134.857-1.216 1.2-2.413 1.214-2.474-.028-.01-2.313-.882-2.336-3.52zM17.63 9.772c.598-.747 1.006-1.762.892-2.793-.863.038-1.944.598-2.566 1.328-.55.643-1.042 1.697-.914 2.689.97.072 1.966-.49 2.588-1.224zm12.818 10.704h3.002l-1.48-4.358h-.041l-1.48 4.358zm3.396 1.24h-3.789l-.91 2.684h-1.602l3.586-9.935h1.666l3.587 9.935h-1.632l-.906-2.685zm8.757-.937c0-1.466-.758-2.43-1.915-2.43-1.136 0-1.9.983-1.9 2.43 0 1.46.764 2.436 1.9 2.436 1.157 0 1.915-.956 1.915-2.436zm1.528 0c0 2.25-1.205 3.697-3.023 3.697-1.031 0-1.851-.462-2.278-1.267h-.035v3.587h-1.486v-9.64h1.438v1.206h.028c.413-.778 1.294-1.28 2.306-1.28 1.838 0 3.05 1.452 3.05 3.697zm6.444 0c0-1.466-.758-2.43-1.915-2.43-1.135 0-1.9.983-1.9 2.43 0 1.46.765 2.436 1.9 2.436 1.157 0 1.915-.956 1.915-2.436zm1.528 0c0 2.25-1.205 3.697-3.023 3.697-1.032 0-1.851-.462-2.279-1.267h-.034v3.587h-1.487v-9.64h1.44v1.206h.027c.413-.778 1.294-1.28 2.306-1.28 1.838 0 3.05 1.452 3.05 3.697zm5.269.853c.11.985 1.067 1.632 2.375 1.632 1.253 0 2.154-.647 2.154-1.535 0-.772-.544-1.233-1.83-1.55l-1.29-.31c-1.823-.44-2.67-1.293-2.67-2.678 0-1.713 1.495-2.89 3.615-2.89 2.1 0 3.54 1.177 3.588 2.89h-1.502c-.09-.991-.908-1.59-2.107-1.59-1.197 0-2.017.606-2.017 1.487 0 .702.524 1.116 1.804 1.432l1.094.268c2.038.483 2.886 1.302 2.886 2.755 0 1.859-1.481 3.023-3.836 3.023-2.203 0-3.69-1.137-3.787-2.934h1.523zm9.308-6.189v1.714h1.377v1.177h-1.377v3.994c0 .62.275.909.881.909.152 0 .393-.022.49-.035v1.171c-.166.041-.496.069-.826.069-1.467 0-2.039-.552-2.039-1.957v-4.15H64.13v-1.178h1.053v-1.714h1.494zm7.532 5.336c0-1.564-.717-2.486-1.922-2.486s-1.92.93-1.92 2.486c0 1.57.715 2.485 1.92 2.485s1.922-.915 1.922-2.485zm-5.357 0c0-2.279 1.343-3.71 3.435-3.71 2.1 0 3.436 1.43 3.436 3.71 0 2.285-1.329 3.71-3.436 3.71s-3.435-1.425-3.435-3.71zm8.097-3.622h1.418v1.233h.034c.228-.82.889-1.308 1.743-1.308.212 0 .392.028.509.055v1.39c-.117-.048-.379-.09-.668-.09-.957 0-1.55.648-1.55 1.667V24.4h-1.487v-7.243h.001zm5.532 2.954h3.623c-.035-1.109-.745-1.838-1.778-1.838-1.025 0-1.769.743-1.844 1.838zm5.027 2.162c-.2 1.314-1.481 2.217-3.12 2.217-2.106 0-3.414-1.412-3.414-3.677 0-2.272 1.315-3.745 3.352-3.745 2.004 0 3.264 1.376 3.264 3.573v.508h-5.115v.09c0 1.24.778 2.052 1.948 2.052.826 0 1.474-.392 1.673-1.018h1.412zM29.39 9.005h.639c.53 0 .9-.31.9-.76 0-.44-.331-.725-.893-.725-.557 0-.92.282-.963.748h-.701c.049-.86.691-1.396 1.686-1.396.94 0 1.602.526 1.602 1.283 0 .527-.35.973-.867 1.092v.056c.618.063 1.061.49 1.061 1.154 0 .818-.773 1.42-1.782 1.42-1.038 0-1.75-.562-1.794-1.414h.712c.044.457.463.752 1.082.752s1.022-.331 1.022-.798c0-.472-.38-.764-1.045-.764h-.659v-.648zm5.588 1.43v-.301l-.879.055c-.496.032-.721.202-.721.52 0 .324.282.512.667.512.537 0 .933-.34.933-.787zm-2.315.307c0-.649.483-1.022 1.34-1.075l.975-.056V9.3c0-.381-.25-.595-.737-.595-.397 0-.67.144-.75.4h-.688c.073-.62.655-1.017 1.472-1.017.903 0 1.412.45 1.412 1.212v2.46h-.685v-.506h-.056c-.215.36-.608.566-1.082.566-.694 0-1.201-.42-1.201-1.078zm4.911-1.986v3.005h-.71V8.158h2.371v.598h-1.66zm5.238 1.202c0-.76-.36-1.22-.962-1.22-.599 0-.973.469-.973 1.224 0 .751.374 1.22.97 1.22.605 0 .965-.46.965-1.224zm.732 0c0 1.145-.58 1.862-1.489 1.862-.513 0-.92-.224-1.108-.605h-.057v1.743h-.71v-4.8h.684v.595h.053c.218-.41.641-.654 1.131-.654.917 0 1.496.714 1.496 1.86zm.946 3.093v-.612l.232.013c.338 0 .53-.138.652-.503l.053-.175-1.304-3.616h.774l.904 2.862h.056l.9-2.862h.753l-1.342 3.752c-.307.877-.649 1.158-1.383 1.158l-.294-.016v-.001zm3.575-2.312h.708c.07.317.367.483.783.483.473 0 .764-.208.764-.533 0-.347-.261-.512-.764-.512h-.54v-.553h.53c.43 0 .65-.165.65-.466 0-.265-.213-.467-.65-.467-.397 0-.688.17-.734.454h-.685c.073-.643.606-1.056 1.42-1.056.856 0 1.346.388 1.346.996a.739.739 0 0 1-.57.737v.058c.467.108.706.41.706.809 0 .686-.584 1.139-1.473 1.139-.786 0-1.425-.362-1.491-1.088zm3.988 1.022V8.158h.705v2.479h.055l1.661-2.479h.704v3.603h-.704v-2.49h-.053l-1.663 2.49h-.705zm7.008-3.005h-1.135v3.005h-.712V8.756H56.08v-.598h2.981v.598zm1.329.87h1.818c-.017-.564-.36-.932-.886-.932-.527 0-.894.371-.933.933zm2.5 1.162c-.162.646-.738 1.042-1.561 1.042-1.032 0-1.664-.707-1.664-1.859 0-1.151.645-1.882 1.66-1.882 1.003 0 1.609.685 1.609 1.816v.248H60.39v.04c.022.631.39 1.031.96 1.031.428 0 .724-.155.855-.436h.685zm3.72-.628v1.055h.842c.42 0 .645-.185.645-.526 0-.36-.254-.529-.734-.529h-.753zm0-1.455v.933h.704c.43 0 .635-.167.635-.47 0-.282-.179-.463-.556-.463h-.784zm-.705-.547h1.624c.705 0 1.117.357 1.117.917 0 .364-.258.695-.608.761v.056c.467.054.77.393.77.83 0 .628-.472 1.039-1.263 1.039h-1.64V8.157" fill="#fff"/></svg>