<svg width="108" height="32" fill="none" xmlns="http://www.w3.org/2000/svg"><path d="M104 32H4c-2.2 0-4-1.8-4-4V4c0-2.2 1.8-4 4-4h100c2.2 0 4 1.8 4 4v24c0 2.2-1.8 4-4 4z" fill="#000"/><path d="M86.149 24h1.493V13.999h-1.493V24zm13.445-6.399l-1.71 4.336h-.052l-1.776-4.336h-1.608l2.663 6.061-1.518 3.371h1.557l4.104-9.431h-1.66zm-8.466 5.263c-.488 0-1.17-.245-1.17-.85 0-.771.85-1.067 1.582-1.067.656 0 .965.142 1.364.334a1.81 1.81 0 0 1-1.776 1.583zm.18-5.481c-1.08 0-2.2.476-2.663 1.532l1.325.552c.282-.552.81-.733 1.364-.733.772 0 1.557.463 1.57 1.286v.103a3.318 3.318 0 0 0-1.558-.385c-1.428 0-2.881.784-2.881 2.251 0 1.338 1.171 2.2 2.483 2.2 1.003 0 1.557-.45 1.904-.977h.051v.771h1.442V20.15c0-1.775-1.326-2.766-3.037-2.766zm-9.225 1.436H79.96v-3.428h2.123c1.116 0 1.75.923 1.75 1.714 0 .775-.634 1.714-1.75 1.714zM82.044 14h-3.576V24h1.492v-3.789h2.084c1.655 0 3.282-1.198 3.282-3.106s-1.627-3.107-3.281-3.107zM62.54 22.864c-1.031 0-1.895-.862-1.895-2.048 0-1.2.864-2.075 1.895-2.075 1.017 0 1.817.875 1.817 2.075 0 1.186-.8 2.048-1.817 2.048zm1.714-4.704h-.052c-.335-.4-.98-.76-1.79-.76-1.703 0-3.262 1.496-3.262 3.416 0 1.907 1.56 3.39 3.261 3.39.812 0 1.456-.361 1.791-.774h.052v.49c0 1.3-.697 1.997-1.817 1.997-.915 0-1.482-.657-1.715-1.212l-1.302.543c.374.9 1.366 2.01 3.017 2.01 1.753 0 3.235-1.031 3.235-3.545v-6.109h-1.418v.554zM66.703 24h1.494V13.998h-1.494V24zm3.698-3.3c-.038-1.314 1.019-1.984 1.78-1.984.592 0 1.095.296 1.263.721l-3.043 1.264zm4.64-1.134c-.284-.76-1.146-2.165-2.912-2.165-1.753 0-3.21 1.38-3.21 3.403 0 1.907 1.444 3.402 3.377 3.402 1.559 0 2.461-.953 2.836-1.508l-1.16-.774c-.387.568-.915.941-1.676.941-.76 0-1.302-.347-1.65-1.03l4.55-1.882-.154-.387zm-36.246-1.12v1.443h3.454c-.104.812-.374 1.404-.786 1.817-.503.503-1.289 1.057-2.668 1.057-2.126 0-3.79-1.714-3.79-3.84 0-2.127 1.664-3.841 3.79-3.841a3.68 3.68 0 0 1 2.604 1.03l1.017-1.018c-.864-.825-2.01-1.456-3.62-1.456-2.914 0-5.362 2.372-5.362 5.284s2.448 5.284 5.361 5.284c1.572 0 2.758-.516 3.686-1.482.954-.954 1.25-2.295 1.25-3.377 0-.335-.025-.644-.078-.902h-4.858v.001zm8.863 4.42c-1.032 0-1.92-.85-1.92-2.061 0-1.226.888-2.063 1.92-2.063 1.03 0 1.92.837 1.92 2.062 0 1.211-.89 2.061-1.92 2.061zm0-5.465c-1.882 0-3.416 1.431-3.416 3.403 0 1.959 1.535 3.402 3.415 3.402 1.883 0 3.417-1.443 3.417-3.402 0-1.972-1.534-3.403-3.416-3.403zm7.45 5.464c-1.03 0-1.92-.85-1.92-2.06 0-1.226.89-2.063 1.92-2.063 1.032 0 1.92.837 1.92 2.062 0 1.211-.888 2.061-1.92 2.061zm0-5.464c-1.88 0-3.416 1.431-3.416 3.403 0 1.959 1.535 3.402 3.417 3.402 1.881 0 3.415-1.443 3.415-3.402 0-1.972-1.534-3.403-3.415-3.403z" fill="#fff"/><path d="M9.007 25.912l-.059-.058c-.233-.246-.37-.628-.37-1.124v.117V7.154v.117c0-.536.16-.94.43-1.182L18.917 16l-9.91 9.911zM8.578 7.09l.001-.008v.008zm.001-.02l.001-.01v.01zm.001-.012c0-.012 0-.024.002-.036l-.002.036zm.003-.073l.001-.001z" fill="url(#paint0_linear)"/><path d="M22.267 19.397l.03-.017 3.915-2.224-3.914 2.224-.03.017zm-.044-.091L18.919 16l3.304-3.305 3.99 2.266c.504.287.788.656.837 1.034v.01c-.05.377-.333.746-.838 1.033l-3.99 2.267z" fill="url(#paint1_linear)"/><path d="M9.715 26.289zm0-.117a1.03 1.03 0 0 1-.707-.26l9.91-9.911 3.305 3.305-11.612 6.597c-.321.183-.626.269-.896.269zm-.712-.147l-.048-.047.048.047z" fill="url(#paint2_linear)"/><path d="M18.919 16L9.007 6.09c.188-.17.43-.26.707-.26.27 0 .575.087.896.27l11.613 6.597-3.304 3.305zm3.379-3.378L10.61 5.982c-.322-.184-.627-.27-.897-.27-.022 0-.042 0-.063.002l.064-.002c.27 0 .575.086.896.27l11.687 6.64zM9.648 5.714h.003-.004z" fill="url(#paint3_linear)"/><path d="M9.817 26.285a1.93 1.93 0 0 0 .794-.265l11.656-6.623L10.61 26.02a1.92 1.92 0 0 1-.792.265zm-.809-.256l-.005-.007c.002 0 .003 0 .005.007zm-.053-.051l-.007-.007c.003 0 .005.007.007.007z" fill="#000"/><path d="M9.715 26.289a1.03 1.03 0 0 1-.707-.26l-.005-.004-.048-.047-.006-.007.06-.059c.187.17.429.26.706.26.27 0 .575-.086.896-.269l11.612-6.597.075.074-.03.017L10.61 26.02c-.281.16-.55.246-.793.265a1.123 1.123 0 0 1-.103.004z" fill="url(#paint4_linear)"/><path d="M8.948 25.971c-.233-.246-.37-.628-.37-1.124 0 .496.137.878.37 1.124z" fill="#000"/><path d="M8.948 25.971c-.233-.246-.37-.628-.37-1.124v-.117c0 .496.137.878.37 1.124l.06.058-.06.06z" fill="url(#paint5_linear)"/><path d="M8.949 25.971l.058-.059h.001l-.059.06z" fill="url(#paint6_linear)"/><path d="M26.845 16.61c.136-.193.204-.399.205-.604v-.007c0 .208-.069.416-.205.61" fill="#000"/><path d="M22.298 19.38l-.075-.074 3.99-2.267c.504-.287.788-.656.838-1.033a1.06 1.06 0 0 1-.206.604c-.14.2-.351.385-.633.546l-3.914 2.224z" fill="url(#paint7_linear)"/><path d="M22.298 19.38l-.075-.074.075.074z" fill="url(#paint8_linear)"/><path d="M27.05 16v-.006c-.002-.417-.282-.833-.838-1.15l-3.915-2.224 3.915 2.224c.559.318.839.737.839 1.155" fill="#404040"/><path d="M27.05 15.996c-.049-.378-.333-.747-.838-1.034l-3.989-2.266.074-.074 3.915 2.224c.556.316.836.732.839 1.15z" fill="url(#paint9_linear)"/><path d="M8.578 7.151v-.007.007zm.003-.129v-.006.006zm0-.007l.002-.007-.002.006v.001zm.002-.01v-.009.01zm0-.01v-.01.01zm.001-.01c.052-.779.47-1.238 1.063-1.27a1.014 1.014 0 0 0-.639.257l-.005.007-.055.054c-.205.218-.336.541-.364.954" fill="#404040"/><path d="M8.578 7.271v-.12-.061l.001-.008V7.07l.001-.01v-.002c0-.012 0-.024.002-.036v-.008V7.005l.001-.009v-.011l.001-.001c.028-.413.16-.737.364-.954l.06.059c-.27.242-.43.646-.43 1.182zm.425-1.295l.005-.004a.021.021 0 0 1-.005.004z" fill="url(#paint10_linear)"/><path d="M22.223 12.696L10.611 6.098c-.322-.182-.626-.27-.897-.27-.277 0-.519.091-.707.26l-.059-.058a1.757 1.757 0 0 1 .06-.058c.173-.156.39-.245.64-.258h.003l.063-.002c.27 0 .575.086.897.27l11.687 6.64h-.001l-.074.074z" fill="url(#paint11_linear)"/><path d="M35.397 7.974c.01.759-.142 1.371-.455 1.835h2.426V6.19h-1.97v1.785zm-1.105 3.444h-.59V9.81h.47c.414-.357.617-.97.61-1.835V5.6h3.203v4.21h.537v1.608h-.59V10.4h-3.64v1.018z" fill="#fff"/><path d="M35.397 7.974c.01.759-.142 1.371-.455 1.835h2.426V6.19h-1.97v1.785zm-1.105 3.444h-.59V9.81h.47c.414-.357.617-.97.61-1.835V5.6h3.203v4.21h.537v1.608h-.59V10.4h-3.64v1.018z" stroke="#fff" stroke-width=".16" stroke-miterlimit="10"/><path d="M40.268 9.377c.354.36.79.54 1.304.54.513 0 .949-.18 1.303-.54.356-.36.534-.819.534-1.377 0-.559-.178-1.018-.534-1.378a1.76 1.76 0 0 0-1.303-.539c-.514 0-.95.18-1.304.54-.356.359-.533.818-.533 1.377 0 .558.177 1.018.533 1.377zm3.064.403c-.473.485-1.059.727-1.76.727-.703 0-1.29-.242-1.761-.727-.47-.486-.706-1.079-.706-1.78 0-.701.236-1.295.706-1.78.472-.485 1.059-.728 1.761-.728.697 0 1.282.244 1.756.731.473.487.71 1.08.71 1.777 0 .701-.235 1.294-.706 1.78" fill="#fff"/><path d="M40.268 9.377c.354.36.79.54 1.304.54.513 0 .949-.18 1.303-.54.356-.36.534-.819.534-1.377 0-.559-.178-1.018-.534-1.378a1.76 1.76 0 0 0-1.303-.539c-.514 0-.95.18-1.304.54-.356.359-.533.818-.533 1.377 0 .558.177 1.018.533 1.377v0zm3.064.403c-.473.485-1.059.727-1.76.727-.703 0-1.29-.242-1.761-.727-.47-.486-.706-1.079-.706-1.78 0-.701.236-1.295.706-1.78.472-.485 1.059-.728 1.761-.728.697 0 1.282.244 1.756.731.473.487.71 1.08.71 1.777 0 .701-.235 1.294-.706 1.78v0z" stroke="#fff" stroke-width=".16" stroke-miterlimit="10"/><path d="M47.143 10.508c-.706 0-1.298-.24-1.777-.719-.478-.478-.717-1.075-.717-1.789 0-.715.239-1.312.717-1.79.479-.478 1.071-.717 1.777-.717.723 0 1.311.26 1.763.784l-.428.416c-.327-.408-.773-.61-1.335-.61-.524 0-.965.176-1.325.53-.36.352-.54.815-.54 1.387 0 .572.18 1.034.54 1.388.36.353.801.529 1.325.529.576 0 1.068-.232 1.474-.697l.43.429a2.339 2.339 0 0 1-.825.627 2.524 2.524 0 0 1-1.079.232z" fill="#fff"/><path d="M47.143 10.508c-.706 0-1.298-.24-1.777-.719-.478-.478-.717-1.075-.717-1.789 0-.715.239-1.312.717-1.79.479-.478 1.071-.717 1.777-.717.723 0 1.311.26 1.763.784l-.428.416c-.327-.408-.773-.61-1.335-.61-.524 0-.965.176-1.325.53-.36.352-.54.815-.54 1.387 0 .572.18 1.034.54 1.388.36.353.801.529 1.325.529.576 0 1.068-.232 1.474-.697l.43.429a2.339 2.339 0 0 1-.825.627 2.524 2.524 0 0 1-1.079.232v0z" stroke="#fff" stroke-width=".16" stroke-miterlimit="10"/><path d="M51.541 10.4h-.616V6.19h-1.341V5.6h3.298v.59h-1.34v4.21z" fill="#fff"/><path d="M51.541 10.4h-.616V6.19h-1.341V5.6h3.298v.59h-1.34v4.21z" stroke="#fff" stroke-width=".16" stroke-miterlimit="10"/><path d="M57.117 5.6l-1.816 4.049c-.252.572-.623.858-1.12.858a1.241 1.241 0 0 1-.476-.107l.16-.57a.656.656 0 0 0 .323.087.564.564 0 0 0 .331-.083.75.75 0 0 0 .22-.305l.172-.383L53.296 5.6h.725l1.186 2.755h.027L56.393 5.6h.724" fill="#fff"/><path d="M57.117 5.6l-1.816 4.049c-.252.572-.623.858-1.12.858a1.241 1.241 0 0 1-.476-.107l.16-.57a.656.656 0 0 0 .323.087.564.564 0 0 0 .331-.083.75.75 0 0 0 .22-.305l.172-.383L53.296 5.6h.725l1.186 2.755h.027L56.393 5.6h.724z" stroke="#fff" stroke-width=".16" stroke-miterlimit="10"/><path d="M57.815 10.4V5.6h3.473v4.8h-.617V6.19h-2.24v4.21h-.615" fill="#fff"/><path d="M57.815 10.4V5.6h3.473v4.8h-.617V6.19h-2.24v4.21h-.615 0z" stroke="#fff" stroke-width=".16" stroke-miterlimit="10"/><path d="M62.388 10.4V5.6h.616v2.058h2.4V5.6h.617v4.8h-.617V8.234h-2.4V10.4h-.616z" fill="#fff"/><path d="M62.388 10.4V5.6h.616v2.058h2.4V5.6h.617v4.8h-.617V8.234h-2.4V10.4h-.616z" stroke="#fff" stroke-width=".16" stroke-miterlimit="10"/><path d="M67.982 9.377c.356.36.79.54 1.303.54.515 0 .95-.18 1.305-.54.355-.36.533-.819.533-1.377 0-.559-.178-1.018-.533-1.378a1.76 1.76 0 0 0-1.305-.539c-.513 0-.947.18-1.303.54-.355.359-.533.818-.533 1.377 0 .558.178 1.018.533 1.377zm3.063.403c-.47.485-1.058.727-1.76.727-.701 0-1.287-.242-1.759-.727-.472-.486-.707-1.079-.707-1.78 0-.701.235-1.295.707-1.78.472-.485 1.058-.728 1.76-.728.698 0 1.283.244 1.757.731.473.487.71 1.08.71 1.777 0 .701-.237 1.294-.708 1.78" fill="#fff"/><path d="M67.982 9.377c.356.36.79.54 1.303.54.515 0 .95-.18 1.305-.54.355-.36.533-.819.533-1.377 0-.559-.178-1.018-.533-1.378a1.76 1.76 0 0 0-1.305-.539c-.513 0-.947.18-1.303.54-.355.359-.533.818-.533 1.377 0 .558.178 1.018.533 1.377v0zm3.063.403c-.47.485-1.058.727-1.76.727-.701 0-1.287-.242-1.759-.727-.472-.486-.707-1.079-.707-1.78 0-.701.235-1.295.707-1.78.472-.485 1.058-.728 1.76-.728.698 0 1.283.244 1.757.731.473.487.71 1.08.71 1.777 0 .701-.237 1.294-.708 1.78v0z" stroke="#fff" stroke-width=".16" stroke-miterlimit="10"/><path d="M74.891 9.81h1.241a.735.735 0 0 0 .577-.248.798.798 0 0 0 .22-.544.776.776 0 0 0-.227-.539.78.78 0 0 0-.597-.245H74.89V9.81zm0-2.152h1.12c.233 0 .42-.077.56-.231a.736.736 0 0 0 .21-.506.741.741 0 0 0-.203-.504.69.69 0 0 0-.54-.228h-1.147v1.469zm-.616 2.742V5.6h1.736c.375 0 .7.124.976.372.275.248.412.56.412.935 0 .228-.06.429-.178.603a1.116 1.116 0 0 1-.473.397v.025c.237.08.431.22.584.416.151.197.228.426.228.684 0 .393-.145.72-.433.979-.288.26-.629.389-1.022.389h-1.83" fill="#fff"/><path d="M74.891 9.81h1.241a.735.735 0 0 0 .577-.248.798.798 0 0 0 .22-.544.776.776 0 0 0-.227-.539.78.78 0 0 0-.597-.245H74.89V9.81zm0-2.152h1.12c.233 0 .42-.077.56-.231a.736.736 0 0 0 .21-.506.741.741 0 0 0-.203-.504.69.69 0 0 0-.54-.228h-1.147v1.469zm-.616 2.742V5.6h1.736c.375 0 .7.124.976.372.275.248.412.56.412.935 0 .228-.06.429-.178.603a1.116 1.116 0 0 1-.473.397v.025c.237.08.431.22.584.416.151.197.228.426.228.684 0 .393-.145.72-.433.979-.288.26-.629.389-1.022.389h-1.83 0z" stroke="#fff" stroke-width=".16" stroke-miterlimit="10"/><defs><linearGradient id="paint0_linear" x1="18.04" y1="6.968" x2="4.614" y2="20.394" gradientUnits="userSpaceOnUse"><stop stop-color="#00A0FF"/><stop offset=".007" stop-color="#00A1FF"/><stop offset=".26" stop-color="#00BEFF"/><stop offset=".512" stop-color="#00D2FF"/><stop offset=".76" stop-color="#00DFFF"/><stop offset="1" stop-color="#00E3FF"/></linearGradient><linearGradient id="paint1_linear" x1="27.667" y1="16.001" x2="8.31" y2="16.001" gradientUnits="userSpaceOnUse"><stop stop-color="#FFE000"/><stop offset=".409" stop-color="#FFBD00"/><stop offset=".775" stop-color="orange"/><stop offset="1" stop-color="#FF9C00"/></linearGradient><linearGradient id="paint2_linear" x1="20.462" y1="17.837" x2="2.255" y2="36.044" gradientUnits="userSpaceOnUse"><stop stop-color="#FF3A44"/><stop offset="1" stop-color="#C31162"/></linearGradient><linearGradient id="paint3_linear" x1="6.436" y1=".147" x2="14.566" y2="8.277" gradientUnits="userSpaceOnUse"><stop stop-color="#32A071"/><stop offset=".069" stop-color="#2DA771"/><stop offset=".476" stop-color="#15CF74"/><stop offset=".801" stop-color="#06E775"/><stop offset="1" stop-color="#00F076"/></linearGradient><linearGradient id="paint4_linear" x1="20.462" y1="17.837" x2="2.255" y2="36.044" gradientUnits="userSpaceOnUse"><stop stop-color="#CC2E36"/><stop offset="1" stop-color="#9C0E4E"/></linearGradient><linearGradient id="paint5_linear" x1="18.04" y1="6.968" x2="4.614" y2="20.394" gradientUnits="userSpaceOnUse"><stop stop-color="#008DE0"/><stop offset=".007" stop-color="#008DE0"/><stop offset=".26" stop-color="#00A7E0"/><stop offset=".512" stop-color="#00B8E0"/><stop offset=".76" stop-color="#00C4E0"/><stop offset="1" stop-color="#00C7E0"/></linearGradient><linearGradient id="paint6_linear" x1="20.462" y1="17.837" x2="2.255" y2="36.044" gradientUnits="userSpaceOnUse"><stop stop-color="#E0333C"/><stop offset="1" stop-color="#AB0F56"/></linearGradient><linearGradient id="paint7_linear" x1="27.668" y1="16.001" x2="8.31" y2="16.001" gradientUnits="userSpaceOnUse"><stop stop-color="#E0C500"/><stop offset=".409" stop-color="#E0A600"/><stop offset=".775" stop-color="#E09100"/><stop offset="1" stop-color="#E08900"/></linearGradient><linearGradient id="paint8_linear" x1="20.462" y1="17.837" x2="2.257" y2="36.042" gradientUnits="userSpaceOnUse"><stop stop-color="#E0333C"/><stop offset="1" stop-color="#AB0F56"/></linearGradient><linearGradient id="paint9_linear" x1="27.667" y1="16.001" x2="8.31" y2="16.001" gradientUnits="userSpaceOnUse"><stop stop-color="#FFE840"/><stop offset=".409" stop-color="#FFCE40"/><stop offset=".775" stop-color="#FFBC40"/><stop offset="1" stop-color="#FFB540"/></linearGradient><linearGradient id="paint10_linear" x1="18.04" y1="6.968" x2="4.614" y2="20.394" gradientUnits="userSpaceOnUse"><stop stop-color="#40B8FF"/><stop offset=".007" stop-color="#40B9FF"/><stop offset=".26" stop-color="#40CEFF"/><stop offset=".512" stop-color="#40DDFF"/><stop offset=".76" stop-color="#40E7FF"/><stop offset="1" stop-color="#40EAFF"/></linearGradient><linearGradient id="paint11_linear" x1="6.436" y1=".147" x2="14.566" y2="8.277" gradientUnits="userSpaceOnUse"><stop stop-color="#65B895"/><stop offset=".069" stop-color="#62BD95"/><stop offset=".476" stop-color="#50DB97"/><stop offset=".801" stop-color="#44ED98"/><stop offset="1" stop-color="#40F498"/></linearGradient></defs></svg>